<?xml version="1.0" encoding="UTF-8" standalone="no" ?>
<!DOCTYPE svg PUBLIC "-//W3C//DTD SVG 1.1//EN" "http://www.w3.org/Graphics/SVG/1.1/DTD/svg11.dtd">
<svg xmlns="http://www.w3.org/2000/svg" xmlns:xlink="http://www.w3.org/1999/xlink" version="1.1" width="500" height="500" viewBox="0 0 500 500" xml:space="preserve">
<desc>Created with Fabric.js 5.3.0</desc>
<defs>
</defs>
<g transform="matrix(1.4926780895 0 0 1.4926780895 250 250)" id="2hdYiC4aIGZVMPtvQc1OU"  >
<path style="stroke: rgb(58,198,172); stroke-width: 0; stroke-dasharray: none; stroke-linecap: butt; stroke-dashoffset: 0; stroke-linejoin: miter; stroke-miterlimit: 4; fill: rgb(0,0,0); fill-rule: nonzero; opacity: 1;"  transform=" translate(-99.49212, -142.100585)" d="M 99.64497 0 C 113.85325 0 125.38462 11.53136 125.38462 25.73964 C 125.38462 39.94792 113.85326 51.47928 99.64497 51.47928 C 85.43669 51.47928 73.90532 39.94792 73.90532 25.73964 C 73.90532 11.531360000000001 85.43668 0 99.64497 0 z M 26.04535 206.6272 C 11.83706 206.6272 0.3056999999999981 195.09583999999998 0.3056999999999981 180.88755999999998 C 0.3056999999999981 166.73945999999998 11.739589999999998 155.24566 25.864949999999997 155.14853999999997 C 25.823209999999996 155.14812999999998 25.781439999999996 155.14791999999997 25.739649999999997 155.14791999999997 C 25.69484 155.14791999999997 25.650049999999997 155.14802999999998 25.605289999999997 155.14825999999996 C 25.604889999999997 155.14540999999997 25.604499999999998 155.14254999999997 25.604099999999995 155.13969999999998 C 52.34916 154.65502999999998 73.90531999999999 132.79899999999998 73.90531999999999 105.93884999999997 C 73.90531999999999 105.22227999999997 73.90016999999999 104.20549999999997 73.90366999999999 103.31359999999998 C 73.90015999999999 102.42169999999997 73.90531999999999 101.40491999999998 73.90531999999999 100.68834999999999 C 73.90531999999999 73.82819999999998 52.34915999999999 51.972169999999984 25.60409999999999 51.48749999999998 C 25.604499999999987 51.48464999999998 25.604889999999987 51.48178999999998 25.60528999999999 51.47893999999998 C 25.65004999999999 51.47916999999998 25.69483999999999 51.47927999999998 25.73964999999999 51.47927999999998 C 25.78143999999999 51.47927999999998 25.82320999999999 51.47906999999998 25.86494999999999 51.478659999999984 C 11.739589999999989 51.38153999999999 0.305699999999991 39.88773999999998 0.305699999999991 25.739639999999984 C 0.305699999999991 11.531359999999983 11.83705999999999 -1.7763568394002505e-14 26.045349999999992 -1.7763568394002505e-14 L 26.04535999999999 -1.7763568394002505e-14 C 40.11062999999999 -1.7763568394002505e-14 51.55260999999999 11.300399999999982 51.78150999999999 25.311439999999983 L 51.78500999999999 25.276089999999982 C 51.78500999999999 52.090789999999984 72.97037999999999 76.92829999999998 99.64497 77.56157999999999 C 126.31956 76.9283 147.50493 52.09078999999999 147.50493 25.27608999999999 L 147.50843 25.31143999999999 C 147.73733000000001 11.300399999999991 159.17931000000002 -1.0658141036401503e-14 173.24458 -1.0658141036401503e-14 L 173.24459000000002 -1.0658141036401503e-14 C 187.45288000000002 -1.0658141036401503e-14 198.98424000000003 11.531359999999989 198.98424000000003 25.73963999999999 C 198.98424000000003 39.887739999999994 187.55035000000004 51.38153999999999 173.42499000000004 51.47865999999999 C 173.46673000000004 51.47906999999999 173.50850000000003 51.47927999999999 173.55029000000005 51.47927999999999 C 173.59510000000006 51.47927999999999 173.63989000000004 51.47916999999999 173.68465000000003 51.47893999999999 C 173.68505000000005 51.48178999999999 173.68544000000003 51.48464999999999 173.68584000000004 51.48749999999999 C 146.94078000000005 51.97216999999999 125.38462000000004 73.82819999999998 125.38462000000004 100.68834999999999 C 125.38462000000004 102.26269999999998 125.40950000000004 105.28612999999999 125.31272000000004 105.25058999999999 C 124.39266000000003 117.59834 114.74882000000004 127.52861999999999 102.52942000000004 128.89317999999997 C 102.55628000000004 128.95875999999998 101.33179000000004 129.05322999999999 100.68838000000004 129.05322999999999 C 73.52497000000004 129.05322999999999 51.785010000000035 154.18768999999998 51.785010000000035 181.35109999999997 L 51.78151000000003 181.31574999999998 C 51.55261000000003 195.32679 40.11063000000003 206.62718999999998 26.045360000000034 206.62718999999998 z M 25.73965 77.57396 C 39.94793 77.57396 51.4793 89.10532 51.4793 103.31360000000001 C 51.4793 117.52188000000001 39.94794 129.05324000000002 25.73965 129.05324000000002 C 11.53137 129.05324000000002 0 117.52188000000001 0 103.31360000000001 C 0 89.10532 11.53136 77.57396 25.73965 77.57396 z M 25.73965 232.72189 C 39.94793 232.72189 51.4793 244.25325 51.4793 258.46153 C 51.4793 272.66981 39.94794 284.20117 25.73965 284.20117 C 11.53137 284.20117 0 272.66981 0 258.46153 C 0 244.25324999999998 11.53136 232.72188999999997 25.73965 232.72188999999997 z" stroke-linecap="round" />
</g>
</svg>